<?xml version="1.0" standalone="no"?><!DOCTYPE svg PUBLIC "-//W3C//DTD SVG 1.1//EN" "http://www.w3.org/Graphics/SVG/1.1/DTD/svg11.dtd"><svg t="1684123800708" class="icon" viewBox="0 0 1024 1024" version="1.1" xmlns="http://www.w3.org/2000/svg" p-id="3934" xmlns:xlink="http://www.w3.org/1999/xlink" width="200" height="200"><path d="M473.156267 135.3728C454.997333 102.4 434.039467 43.6224 409.6 36.113067c42.120533 0.477867 95.573333 26.0096 106.222933 61.44 13.038933-40.618667 47.786667-40.618667 69.973334-42.120534-33.5872 30.037333-35.84 60.142933-35.84 73.728s-68.8128 21.026133-76.8 6.212267z" fill="#FFC533" p-id="3935"></path><path d="M930.065067 643.2768c0 192.7168-242.141867 301.056-418.065067 301.056s-418.065067-108.270933-418.065067-301.056C93.934933 559.786667 150.186667 505.173333 193.536 416.426667 260.164267 279.893333 288.5632 117.213867 512 117.213867S763.835733 279.893333 830.464 416.426667c43.349333 88.746667 99.601067 143.36 99.601067 226.850133z" fill="#FFC533" p-id="3936"></path><path d="M338.878046 521.754344a69.085867 108.817067 10.29 1 0 38.876092-214.133756 69.085867 108.817067 10.29 1 0-38.876092 214.133756Z" fill="#FFFFFF" p-id="3937"></path><path d="M349.207527 501.992935a36.795733 47.5136 10.29 1 0 16.974755-93.498805 36.795733 47.5136 10.29 1 0-16.974755 93.498805Z" p-id="3938"></path><path d="M597.715697 427.080977a108.817067 69.085867 79.71 1 0 135.949411-24.681684 108.817067 69.085867 79.71 1 0-135.949411 24.681684Z" fill="#FFFFFF" p-id="3939"></path><path d="M630.031397 461.863485a47.5136 36.795733 79.71 1 0 72.407838-13.14568 47.5136 36.795733 79.71 1 0-72.407838 13.14568Z" p-id="3940"></path><path d="M811.144533 782.7456c-59.5968 92.3648-42.871467 197.973333-313.617066 197.973333-249.378133 0-233.949867-105.949867-288.904534-197.973333-34.133333-57.480533-67.3792-106.222933-38.5024-131.549867s113.664-1.774933 173.6704-1.774933 67.720533-94.958933 153.736534-94.958933c93.457067 0 101.7856 94.958933 166.912 94.958933s156.330667-24.1664 188.552533 1.774933-4.778667 74.069333-41.847467 131.549867z" fill="#EA6726" p-id="3941"></path><path d="M400.042667 723.217067c-11.6736-20.48-8.533333-35.771733 2.594133-42.120534s25.941333-1.297067 37.614933 19.0464 15.7696 48.401067 4.642134 54.613334-33.1776-11.195733-44.8512-31.5392zM623.957333 723.217067c11.6736-20.48 8.533333-35.771733-2.594133-42.120534s-25.941333-1.297067-37.614933 19.0464-15.7696 48.401067-4.642134 54.613334 33.1776-11.195733 44.8512-31.5392z" p-id="3942"></path></svg>